<svg width="108" height="72" viewBox="0 0 108 72" fill="none" xmlns="http://www.w3.org/2000/svg">
<path d="M18 15C18 6.71573 24.7157 0 33 0H75C83.2843 0 90 6.71573 90 15V57C90 65.2843 83.2843 72 75 72H33C24.7157 72 18 65.2843 18 57V15Z" fill="#2D325A"/>
<path d="M27 22C27 13.7157 33.7157 7 42 7H67C75.2843 7 82 13.7157 82 22V47C82 55.2843 75.2843 62 67 62H42C33.7157 62 27 55.2843 27 47V22Z" fill="#F7F4E5"/>
<ellipse cx="11.3949" cy="24.9276" rx="9.89742" ry="22.0955" transform="rotate(15.3548 11.3949 24.9276)" fill="#2D325A"/>
<ellipse rx="9.89742" ry="22.0955" transform="matrix(-0.964305 0.264795 0.264795 0.964305 96.3949 24.9276)" fill="#2D325A"/>
<path d="M69 48.4434C63.5217 54.5958 57.8684 52.545 55 44" stroke="#2494A2" stroke-width="2" stroke-linecap="round"/>
<path d="M42 48.4434C47.4783 54.5958 53.1316 52.545 56 44" stroke="#2494A2" stroke-width="2" stroke-linecap="round"/>
<path d="M56.7321 44C55.9622 45.3333 54.0377 45.3333 53.2679 44L50.6699 39.5C49.9001 38.1667 50.8623 36.5 52.4019 36.5H57.5981C59.1377 36.5 60.0999 38.1667 59.3301 39.5L56.7321 44Z" fill="#2494A2"/>
<rect x="34" y="24" width="14" height="12" rx="3" fill="#2494A2"/>
<rect x="34" y="29" width="14" height="10" rx="3" fill="#F7F4E5"/>
<rect x="62" y="24" width="14" height="12" rx="3" fill="#2494A2"/>
<rect x="62" y="29" width="14" height="10" rx="3" fill="#F7F4E5"/>
</svg>
